<?xml version="1.0" encoding="UTF-8" standalone="no"?>
<!-- Created with Inkscape (http://www.inkscape.org/) -->

<svg
   width="512mm"
   height="512mm"
   viewBox="0 0 512 512"
   version="1.1"
   id="svg5"
   xml:space="preserve"
   inkscape:export-filename="bitmap.png"
   inkscape:export-xdpi="96"
   inkscape:export-ydpi="96"
   inkscape:version="1.2.2 (b0a8486541, 2022-12-01)"
   sodipodi:docname="logo.svg"
   xmlns:inkscape="http://www.inkscape.org/namespaces/inkscape"
   xmlns:sodipodi="http://sodipodi.sourceforge.net/DTD/sodipodi-0.dtd"
   xmlns="http://www.w3.org/2000/svg"
   xmlns:svg="http://www.w3.org/2000/svg"><sodipodi:namedview
     id="namedview7"
     pagecolor="#ffffff"
     bordercolor="#000000"
     borderopacity="0.25"
     inkscape:showpageshadow="2"
     inkscape:pageopacity="0.0"
     inkscape:pagecheckerboard="0"
     inkscape:deskcolor="#d1d1d1"
     inkscape:document-units="mm"
     showgrid="false"
     inkscape:zoom="0.25476482"
     inkscape:cx="969.52163"
     inkscape:cy="967.55904"
     inkscape:window-width="1300"
     inkscape:window-height="699"
     inkscape:window-x="0"
     inkscape:window-y="0"
     inkscape:window-maximized="1"
     inkscape:current-layer="layer1" /><defs
     id="defs2" /><g
     inkscape:label="Layer 1"
     inkscape:groupmode="layer"
     id="layer1"
     transform="translate(173.31459,87.053422)"><rect
       style="fill:#f4d7d7;stroke-width:3.03174"
       id="rect550"
       width="512"
       height="512"
       x="346.68542"
       y="-87.053421"
       ry="50.042862" /><g
       id="g636"
       transform="matrix(2.4516704,0,0,2.4516704,-174.73998,-193.05039)"><path
         style="fill:#000080;stroke-width:0.264583"
         d="m 74.632636,218.95219 c -0.93373,-0.37848 -1.24417,-1.00958 -2.2225,-4.51815 l -0.953506,-3.41957 -1.5824,-0.96826 -1.5824,-0.96825 -3.31647,0.82966 c -3.95117,0.98844 -4.51791,1.01307 -5.39211,0.23435 -1.10662,-0.98576 -5.18204,-8.36625 -5.18204,-9.38456 0,-0.9199 0.50505,-1.59282 3.67213,-4.89262 l 1.45025,-1.51103 -0.0298,-2.0377 -0.0298,-2.0377 -2.23758,-2.2721 c -2.42311,-2.46049 -2.82515,-3.04984 -2.82515,-4.14129 0,-0.41394 1.00893,-2.47778 2.40374,-4.91703 3.14412,-5.49843 2.87778,-5.35218 7.64494,-4.19778 l 3.57736,0.86629 1.78594,-0.9847 c 0.98226,-0.54158 1.78593,-1.11001 1.78593,-1.26318 0,-0.15316 0.37938,-1.66028 0.843056,-3.34915 0.62852,-2.28924 1.02733,-3.25584 1.56715,-3.79828 l 0.72409,-0.7276 h 5.20008 5.20008 l 0.71723,0.7276 c 0.52721,0.53484 0.98404,1.64063 1.72435,4.17393 l 1.00711,3.44633 1.65489,0.8842 1.654904,0.88419 3.62338,-0.86831 c 4.91014,-1.17667 4.65444,-1.31405 7.80319,4.19248 1.40004,2.44839 2.41174,4.5169 2.41174,4.93101 0,1.1029 -0.40259,1.68177 -3.00567,4.32182 l -2.41829,2.45263 -0.0342,1.7807 -0.0342,1.78071 2.74617,2.80473 c 2.41332,2.46479 2.74616,2.91544 2.74616,3.71822 0,1.05095 -4.04794,8.40795 -5.18204,9.41819 -0.87986,0.78376 -1.45771,0.76003 -5.53358,-0.22728 l -3.43959,-0.83318 -1.504124,0.89403 -1.50413,0.89404 -0.84428,2.91041 c -1.63845,5.64804 -1.32281,5.4304 -7.84214,5.40719 -2.59022,-0.009 -4.95175,-0.11497 -5.24785,-0.23499 z m 8.20473,-7.35501 c 1.34443,-4.53103 1.31507,-4.48183 3.27321,-5.4849 0.96823,-0.49597 2.2962,-1.26509 2.95104,-1.70913 0.65485,-0.44404 1.43123,-0.80786 1.725314,-0.80848 0.29408,-5.3e-4 1.96042,0.34666 3.703,0.77173 1.74257,0.42508 3.18075,0.7525 3.19595,0.72761 0.0152,-0.0249 0.51218,-0.87871 1.10439,-1.89735 l 1.07675,-1.85208 -2.35999,-2.41176 c -1.298,-1.32647 -2.37747,-2.51709 -2.39883,-2.64583 -0.0214,-0.12874 -0.0634,-1.8891 -0.0934,-3.91189 l -0.0546,-3.67782 2.43687,-2.63629 2.43686,-2.63629 -1.05476,-1.82183 c -0.62601,-1.08126 -1.22907,-1.81968 -1.48357,-1.81653 -0.23584,0.003 -1.55989,0.29819 -2.94234,0.65615 -3.37304,0.87341 -3.845334,0.84771 -5.424814,-0.29516 -0.72713,-0.52614 -1.91738,-1.22661 -2.64498,-1.55659 -0.72761,-0.32999 -1.53504,-0.83577 -1.79429,-1.12397 -0.25926,-0.28819 -0.86884,-1.87968 -1.35463,-3.53663 l -0.88325,-3.01265 -2.26172,-0.0761 -2.26172,-0.0761 -0.39858,1.39905 c -0.21922,0.76948 -0.53734,1.93483 -0.70693,2.58967 -0.61106,2.35954 -1.02679,2.91924 -2.75313,3.70658 -0.88477,0.40351 -2.203596,1.16336 -2.930736,1.68854 -1.60339,1.15807 -2.28823,1.19383 -5.55524,0.29014 -1.30866,-0.362 -2.51365,-0.65818 -2.67776,-0.65818 -0.1641,0 -0.792,0.85262 -1.39532,1.89471 l -1.09696,1.89471 1.94554,2.0079 c 2.8285,2.91916 2.75929,2.74171 2.69213,6.90268 -0.0317,1.96454 -0.0742,3.66291 -0.0943,3.77417 -0.0202,0.11127 -1.04593,1.28114 -2.27951,2.59973 l -2.24286,2.39743 0.72151,1.25697 c 0.39683,0.69133 0.91376,1.54421 1.14873,1.89528 l 0.42721,0.63832 3.01237,-0.72955 c 1.6568,-0.40126 3.24219,-0.72738 3.52308,-0.7247 0.2809,0.003 1.2334,0.4662 2.11667,1.03006 0.883266,0.56387 2.260786,1.36754 3.061156,1.78594 1.45296,0.75955 1.45631,0.7642 2.1705,3.00969 0.39342,1.23692 0.84449,2.75497 1.00239,3.37343 l 0.28709,1.12448 h 2.22274 2.22275 z m -5.60632,-9.69498 c -2.84941,-0.92994 -5.431656,-3.3009 -6.456516,-5.92823 -0.79997,-2.0508 -0.81559,-5.17562 -0.0357,-7.1451 1.1043,-2.78879 3.311426,-4.94182 6.059696,-5.91117 2.18767,-0.77161 5.44879,-0.60633 7.51073,0.38067 3.9384,1.88522 6.401624,6.59483 5.58465,10.67772 -0.66434,3.3201 -2.80477,6.064 -5.80165,7.43734 -1.82627,0.8369 -5.08351,1.06894 -6.86119,0.48877 z m 5.6158,-5.83359 c 1.06199,-0.81002 1.96635,-2.48642 1.97563,-3.66222 0.0124,-1.57582 -1.21875,-3.54905 -2.69303,-4.31612 -1.1435,-0.59496 -3.41519,-0.47802 -4.46563,0.22987 -2.50213,1.68618 -3.02416,4.8194 -1.17009,7.02283 1.54414,1.83512 4.46163,2.16835 6.35312,0.72564 z M 42.77728,212.39093 c -0.48324,-0.44827 -1.25571,-1.84494 -2.01211,-3.63802 -2.17832,-5.1638 -3.28582,-10.38859 -3.35101,-15.80885 l -0.0406,-3.37344 h -5.10805 -5.10806 l -0.86407,-0.77199 -0.86407,-0.77199 -0.0704,-22.99158 -0.0704,-22.99158 -1.34598,-0.34497 c -4.06504,-1.04184 -8.08093,-4.30776 -9.86951,-8.02636 -1.40592,-2.92302 -1.73062,-4.84633 -1.73597,-10.28265 l -0.005,-4.6655 3.65233,-5.65326 c 15.9469,-24.683317 18.20299,-28.079415 18.88964,-28.434492 0.61727,-0.319202 7.34769,-0.364252 45.704456,-0.305917 44.583174,0.0678 44.985244,0.07308 45.505644,0.597575 0.28877,0.291041 5.29269,8.014035 11.11983,17.162204 l 10.59479,16.63303 -0.005,4.66593 c -0.005,5.43678 -0.33003,7.36 -1.73598,10.28308 -1.78937,3.72026 -5.8044,6.9845 -9.87377,8.02745 l -1.35023,0.34606 v 5.25479 c 0,5.92379 -0.15698,6.57694 -1.7396,7.2382 -1.15964,0.48453 -2.0565,0.25625 -2.89139,-0.73596 -0.65807,-0.78207 -0.66068,-0.80688 -0.66068,-6.27568 v -5.49051 l -1.3685,-0.31588 c -2.51859,-0.58137 -4.70106,-1.87182 -6.99772,-4.13764 l -2.14851,-2.11965 -0.8942,1.14274 c -1.32698,1.69583 -4.05706,3.64303 -6.45044,4.60073 -1.99491,0.79824 -2.31454,0.84749 -5.55625,0.85613 -3.24667,0.009 -3.55372,-0.037 -5.47449,-0.81345 -2.49878,-1.01015 -5.21358,-2.91087 -6.50345,-4.55326 l -0.96825,-1.23289 -1.99357,1.99858 c -3.180554,3.18853 -6.781434,4.73564 -11.042534,4.74438 -2.63727,0.005 -4.33654,-0.39564 -6.95834,-1.6423 -1.793016,-0.85257 -2.656836,-1.48176 -4.260866,-3.1035 l -2.01191,-2.03414 -0.63176,0.92198 c -1.51196,2.20657 -5.3121,4.62931 -8.56302,5.45928 -5.53745,1.41371 -12.36194,-0.88396 -15.76089,-5.30638 l -0.82059,-1.06769 -2.16558,2.13951 c -2.29706,2.26941 -4.50317,3.56781 -7.06795,4.15984 l -1.31534,0.30361 v 21.12123 21.12122 h 3.69912 3.69913 l 0.16496,-0.7276 c 1.91074,-8.42802 5.40385,-15.0313 11.05554,-20.89908 5.92161,-6.14803 13.17444,-10.27649 21.31644,-12.13378 9.821856,-2.24048 19.520236,-1.01624 28.59299,3.60932 4.3715,2.22873 7.27865,4.35978 10.99288,8.05822 5.65265,5.62862 9.44517,12.25309 11.2471,19.64553 l 0.59656,2.44739 h 3.79472 3.79472 v -4.91514 -4.91515 l 0.7734,-0.77339 c 1.51122,-1.51123 3.99136,-0.73022 4.38437,1.38067 0.091,0.48875 0.12859,3.60729 0.0835,6.93009 l -0.0819,6.04145 -0.86407,0.77157 -0.86406,0.77157 h -5.11405 -5.11404 l -0.16978,3.63802 c -0.19313,4.13846 -0.70741,7.43374 -1.67854,10.75543 -0.12308,0.42099 0.13409,0.34563 1.58009,-0.46302 2.4918,-1.39349 3.97378,-1.27183 4.8368,0.39705 0.60282,1.16572 0.30397,2.4361 -0.75933,3.22779 -0.46686,0.34762 -2.94914,1.83816 -5.51616,3.31233 -6.9415,3.98631 -6.92749,3.99125 -9.73995,-3.43146 -2.05646,-5.42748 -2.23283,-6.50865 -1.22594,-7.51554 1.63445,-1.63445 3.58343,-0.96062 4.59534,1.58877 0.34657,0.87313 0.72688,1.68805 0.84514,1.81094 0.28136,0.29238 1.22511,-3.77978 1.61542,-6.97031 0.17412,-1.4233 0.24105,-3.79107 0.1543,-5.45886 -0.4919,-9.45707 -4.2815,-17.93421 -11.0374,-24.69011 -14.53529,-14.53529 -37.26356,-14.7862 -51.92102,-0.5732 -5.43852,5.27361 -8.8539,11.08965 -10.63471,18.10981 -1.91453,7.54727 -1.16053,16.44689 1.9876,23.46027 0.62055,1.38245 1.18048,3.05993 1.2443,3.72773 0.10549,1.10399 0.0401,1.27807 -0.72069,1.91823 -1.13031,0.95109 -2.38282,0.94247 -3.42421,-0.0236 z M 30.89157,136.39598 c 3.2432,-1.00787 5.67427,-3.24811 6.83709,-6.30039 0.43088,-1.13103 0.53296,-2.03054 0.53296,-4.69635 v -3.29738 H 27.91223 17.56283 l 0.10734,3.50574 c 0.0955,3.11859 0.18606,3.67625 0.82017,5.04981 2.34266,5.07456 7.24224,7.3418 12.40123,5.73857 z m 27.55393,-0.4881 c 2.22414,-1.09494 4.41319,-3.40692 5.23466,-5.52863 0.46584,-1.20319 0.61879,-2.25194 0.71517,-4.90394 l 0.12261,-3.37345 H 54.03562 43.55329 v 2.33267 c 0,4.38412 0.86511,7.06092 2.99401,9.26398 2.27178,2.35092 4.5351,3.25125 7.88746,3.13757 1.94366,-0.0659 2.53909,-0.20371 4.01074,-0.9282 z m 25.853616,0.14245 c 1.93728,-0.93355 3.18837,-2.00581 4.30721,-3.69156 1.35949,-2.04833 1.77821,-3.75836 1.77821,-7.26221 v -2.9947 H 80.040416 69.6963 l 0.0986,3.63803 c 0.0895,3.30122 0.16467,3.77366 0.81171,5.10309 0.92938,1.90954 2.246586,3.42522 3.897196,4.48441 1.99944,1.28304 3.24226,1.59691 5.9588,1.50487 1.92546,-0.0652 2.6598,-0.21491 3.83646,-0.78193 z m 25.986874,0.0143 c 3.02959,-1.3948 5.40454,-4.45112 6.00471,-7.72745 0.15817,-0.86347 0.28759,-2.61964 0.28759,-3.9026 V 122.1019 H 106.12725 95.6762 v 2.72255 c 0,6.23981 2.19992,9.72852 7.39387,11.72546 1.58723,0.61025 5.39215,0.35436 7.21592,-0.48529 z m 26.26257,-0.071 c 2.10247,-1.00761 3.93706,-2.88745 4.97402,-5.09671 0.7814,-1.66477 0.84409,-2.01686 0.94164,-5.28922 l 0.10453,-3.50574 h -10.3694 -10.36939 l 0.0861,3.63803 c 0.0778,3.28576 0.1543,3.78342 0.79005,5.13957 1.24201,2.64945 3.63395,4.77417 6.38323,5.67013 0.70855,0.23091 1.98291,0.33394 3.4962,0.28267 1.9727,-0.0668 2.65263,-0.21074 3.96298,-0.83873 z M 44.56658,103.3648 c 2.93519,-7.394959 5.33671,-13.528836 5.33671,-13.630826 0,-0.101991 -2.81199,-0.153517 -6.24886,-0.114503 l -6.24887,0.07093 -8.70009,13.429389 c -4.78505,7.38616 -8.70009,13.48811 -8.70009,13.55989 0,0.0718 4.32551,0.13051 9.61225,0.13051 h 9.61225 z m 20.27579,12.85008 c 0.14385,-0.64628 3.84863,-26.129613 3.8472,-26.462951 -5.3e-4,-0.111683 -2.93214,-0.171214 -6.5148,-0.132292 l -6.51394,0.07077 -4.93833,12.435413 c -2.71608,6.83948 -5.14166,12.94143 -5.39017,13.5599 l -0.45184,1.12447 h 9.91469 9.9147 z m 25.022766,0.26459 c 0.005,-0.18191 -0.91582,-6.31362 -2.04709,-13.62605 l -2.05687,-13.295306 h -5.85031 -5.85031 l -0.31107,2.182817 c -0.17109,1.20054 -1.06277,7.33226 -1.981516,13.626039 l -1.67044,11.44322 h 9.878916 c 7.72154,0 9.88105,-0.0722 9.88869,-0.33072 z m 24.860324,-1.05834 c -0.28736,-0.76398 -2.64117,-6.86593 -5.23068,-13.55989 l -4.70819,-12.170835 -6.80415,-0.07061 c -5.3524,-0.05555 -6.80418,8.99e-4 -6.80427,0.264583 -1.4e-4,0.431142 3.9805,26.156062 4.1153,26.595092 0.0789,0.2569 2.31738,0.33072 10.02801,0.33072 h 9.92646 z m 25.39313,1.19063 c -0.004,-0.10914 -3.84894,-6.2111 -8.54389,-13.5599 l -8.53629,-13.361455 -6.30294,-0.071 c -5.93136,-0.06682 -6.29306,-0.04342 -6.13525,0.396875 0.0922,0.257334 2.44913,6.391241 5.23755,13.63089 l 5.06987,13.16302 h 9.60928 c 5.2851,0 9.60586,-0.0893 9.60167,-0.19843 z m -9.3123,49.26309 c -1.48409,-0.80538 -1.70445,-2.5252 -0.49675,-3.87686 1.99372,-2.23135 5.41899,0.0764 4.13367,2.78503 -0.67741,1.42753 -2.18457,1.87999 -3.63692,1.09183 z"
         id="path314" /><rect
         style="fill:#ffffff;stroke-width:0.926832"
         id="rect370"
         width="64.469185"
         height="87.092766"
         x="118.07473"
         y="67.617035"
         ry="0.053605855" /><path
         style="fill:#000080;stroke-width:0.205343"
         d="m 119.41083,156.93344 c -1.7505,-0.62469 -3.26656,-2.32432 -3.64444,-4.08573 -0.16407,-0.76472 -0.21045,-12.64131 -0.16534,-42.3368 l 0.0627,-41.273914 0.43588,-0.942393 c 0.55624,-1.202613 1.73131,-2.37768 2.93391,-2.933918 0.8757,-0.405038 1.34389,-0.440529 6.61513,-0.501507 l 5.67273,-0.06558 0.30195,-0.768695 c 0.53759,-1.368572 0.98528,-1.461511 7.04045,-1.461511 4.38907,0 5.26029,-0.04749 5.1704,-0.281755 -0.54988,-1.432958 -0.20357,-3.905221 0.76112,-5.433367 2.28007,-3.611871 7.50895,-4.166876 10.51027,-1.115573 1.47098,1.495465 2.27365,4.236003 1.77236,6.051337 l -0.21006,0.760708 5.51054,0.06069 c 5.22892,0.05758 5.54005,0.08272 6.08811,0.492249 0.31769,0.23737 0.65952,0.717217 0.75965,1.066322 l 0.18204,0.634739 5.67192,0.06302 5.67192,0.06302 1.17543,0.577209 c 0.6465,0.317463 1.49621,0.951971 1.88829,1.410009 1.4428,1.685601 1.35115,-0.505792 1.35115,32.305497 v 29.599353 l 1.58215,0.34334 c 2.63038,0.57081 4.80362,1.78566 6.86355,3.83673 1.49088,1.48446 1.92083,2.07239 2.70965,3.70518 1.19555,2.47475 1.67518,4.74299 1.51608,7.16979 -0.40535,6.1828 -4.74801,11.41627 -10.74597,12.95029 -1.54017,0.3939 -2.41074,0.40398 -34.14579,0.3952 -26.6683,-0.008 -32.70484,-0.0588 -33.33577,-0.28396 z m 53.8923,-3.8927 c -2.88039,-3.04558 -4.32317,-6.88363 -4.06672,-10.8182 0.42201,-6.4745 5.14043,-11.90938 11.41036,-13.14291 l 1.24002,-0.24396 V 99.594422 c 0,-32.188227 0.0794,-30.24753 -1.27103,-31.070862 -0.63591,-0.387701 -1.02581,-0.414461 -6.04824,-0.415183 l -5.36849,-7.68e-4 -0.0738,1.624546 c -0.0658,1.447983 -0.14224,1.710204 -0.70371,2.412775 -1.28248,1.604763 -0.0982,1.506261 -18.11438,1.506618 -15.37036,2.09e-4 -16.10972,-0.01676 -16.83812,-0.388515 -1.45198,-0.741058 -2.0719,-1.921365 -2.08756,-3.974698 l -0.009,-1.180726 h -5.34912 c -5.92647,0 -6.24582,0.05944 -6.91665,1.286873 -0.34345,0.628439 -0.36282,2.857433 -0.36282,41.741498 0,39.24693 0.0166,41.1028 0.37051,41.64307 0.20378,0.311 0.6658,0.7455 1.02671,0.96557 0.64155,0.39118 1.25413,0.40013 27.4319,0.40087 l 26.77569,7.7e-4 z m -46.47179,-31.68227 c -1.34631,-1.31016 -1.61917,-1.68475 -1.61917,-2.22297 0,-0.81143 0.73091,-1.54026 1.54466,-1.54026 0.40796,0 0.83777,0.23791 1.37171,0.7593 l 0.77759,0.75929 2.2292,-2.19669 c 1.82205,-1.79551 2.34022,-2.1967 2.83718,-2.1967 0.86884,0 1.5068,0.6697 1.5068,1.58176 0,0.678 -0.23351,0.981 -2.61811,3.39718 -2.55131,2.58511 -3.36851,3.23478 -4.06891,3.23478 -0.18798,0 -1.07042,-0.70906 -1.96095,-1.57569 z m 16.32773,-1.17894 c -1.04259,-0.45829 -1.2346,-1.65577 -0.39942,-2.49095 l 0.50402,-0.50402 h 15.50128 15.50126 l 0.55703,0.47913 c 0.68882,0.5925 0.7296,1.63384 0.0891,2.27449 -0.42677,0.42685 -0.5126,0.42944 -15.77285,0.47519 -12.58032,0.0378 -15.45841,-0.005 -15.98039,-0.23384 z m -16.43,-14.36833 c -1.31434,-1.31434 -1.5169,-1.61395 -1.5169,-2.24387 0,-0.54079 0.13857,-0.83597 0.54105,-1.15257 0.78095,-0.61429 1.39679,-0.52895 2.34143,0.32448 l 0.83023,0.75006 2.21981,-2.18746 c 2.40021,-2.365215 2.79402,-2.548118 3.79357,-1.761876 0.40744,0.32049 0.54105,0.610156 0.54105,1.172896 0,0.68774 -0.23383,0.98113 -2.93396,3.68126 -3.65622,3.65623 -3.59264,3.64074 -5.81628,1.41708 z m 16.35134,-1.2113 c -1.06662,-0.53967 -1.06855,-2.16258 -0.003,-2.71349 0.53588,-0.27711 2.48471,-0.30885 15.99228,-0.26041 14.79622,0.0531 15.39848,0.0701 15.81419,0.44633 0.64848,0.58697 0.59198,1.81476 -0.10887,2.36606 -0.53647,0.42198 -0.67085,0.42556 -15.86273,0.42256 -11.8873,-0.002 -15.436,-0.0609 -15.83164,-0.26105 z M 126.71582,90.218396 c -1.71372,-1.713705 -1.92224,-2.408631 -0.99962,-3.33125 0.71151,-0.711512 1.39824,-0.639513 2.3826,0.249787 l 0.83437,0.753818 1.98968,-1.963353 c 1.09433,-1.07984 2.20108,-2.071003 2.45945,-2.202584 0.9627,-0.490261 2.09701,0.275632 2.09701,1.415908 0,0.689098 -0.2294,0.974818 -2.94204,3.664343 -3.66694,3.635682 -3.61236,3.622426 -5.82145,1.413331 z m 16.04383,-1.4645 c -0.61978,-0.619776 -0.65568,-1.514517 -0.0853,-2.126712 l 0.41869,-0.4494 h 15.67797 c 14.65193,0 15.70716,0.02359 16.12373,0.360948 0.66895,0.541671 0.63412,1.633137 -0.0715,2.240054 l -0.55703,0.479141 h -15.50129 -15.50128 z m 43.31146,55.350494 c 3.38203,-3.39911 3.82405,-3.92015 3.82405,-4.50775 0,-0.83379 -0.78585,-1.67246 -1.56713,-1.67246 -0.44578,0 -1.18803,0.62424 -3.66247,3.08015 -1.70685,1.69407 -3.1831,3.08013 -3.28057,3.08013 -0.0975,0 -0.66574,-0.46201 -1.26282,-1.02671 -1.24217,-1.1748 -1.88178,-1.3005 -2.65959,-0.52269 -0.92331,0.92331 -0.71492,1.58389 1.08739,3.447 1.65845,1.71438 2.43232,2.20746 3.22629,2.05569 0.26581,-0.0508 2.13573,-1.76335 4.29485,-3.93336 z M 153.29765,62.306673 c 0.46101,-0.565806 0.65513,-1.849567 0.42055,-2.781173 -0.79718,-3.165855 -5.12548,-3.581286 -6.6475,-0.638031 -0.38066,0.736114 -0.38066,2.052719 1e-5,2.963782 l 0.29753,0.712101 h 2.86014 c 2.03966,0 2.92012,-0.07366 3.06927,-0.256679 z"
         id="path316" /><text
         xml:space="preserve"
         style="font-weight:bold;font-size:18.4149px;font-family:Roboto;-inkscape-font-specification:'Roboto Bold';fill:#000080;stroke-width:0.959116"
         x="11.612718"
         y="237.77724"
         id="text482"><tspan
           sodipodi:role="line"
           id="tspan480"
           style="font-style:normal;font-variant:normal;font-weight:bold;font-stretch:normal;font-family:'Trebuchet MS';-inkscape-font-specification:'Trebuchet MS Bold';fill:#000080;stroke-width:0.959116"
           x="11.612718"
           y="237.77724">Store Managment App</tspan></text></g></g></svg>
